<mxfile host="app.diagrams.net" agent="Mozilla/5.0 (Macintosh; Intel Mac OS X 10_15_7) AppleWebKit/537.36 (KHTML, like Gecko) Chrome/128.0.0.0 Safari/537.36" version="24.7.12">
  <diagram name="Page-1" id="uojWjgMKgcJRC9gv00P-">
    <mxGraphModel dx="1247" dy="683" grid="1" gridSize="10" guides="1" tooltips="1" connect="1" arrows="1" fold="1" page="1" pageScale="1" pageWidth="827" pageHeight="1169" math="0" shadow="0">
      <root>
        <mxCell id="0" />
        <mxCell id="1" parent="0" />
        <mxCell id="HMTDzFN8RS-vj42mXJIS-21" value="&lt;font style=&quot;font-size: 10px;&quot;&gt;Cloud to device&lt;br&gt;communication&lt;/font&gt;" style="rounded=0;whiteSpace=wrap;html=1;" vertex="1" parent="1">
          <mxGeometry x="390" y="130" width="90" height="35" as="geometry" />
        </mxCell>
        <mxCell id="HMTDzFN8RS-vj42mXJIS-22" value="&lt;font style=&quot;font-size: 10px;&quot;&gt;Management and monitoring&lt;/font&gt;" style="rounded=0;whiteSpace=wrap;html=1;" vertex="1" parent="1">
          <mxGeometry x="705" y="260" width="90" height="35" as="geometry" />
        </mxCell>
        <mxCell id="HMTDzFN8RS-vj42mXJIS-23" value="Api services for user" style="rounded=0;whiteSpace=wrap;html=1;" vertex="1" parent="1">
          <mxGeometry x="675" y="330" width="75" height="40" as="geometry" />
        </mxCell>
        <mxCell id="HMTDzFN8RS-vj42mXJIS-24" value="&lt;font style=&quot;font-size: 10px;&quot;&gt;IA image traitement and data analytics&lt;/font&gt;" style="rounded=0;whiteSpace=wrap;html=1;" vertex="1" parent="1">
          <mxGeometry x="502" y="267" width="120" height="33" as="geometry" />
        </mxCell>
        <mxCell id="HMTDzFN8RS-vj42mXJIS-26" value="" style="shape=cylinder3;whiteSpace=wrap;html=1;boundedLbl=1;backgroundOutline=1;size=15;rotation=90;" vertex="1" parent="1">
          <mxGeometry x="272.5" y="217.5" width="35" height="60" as="geometry" />
        </mxCell>
        <mxCell id="HMTDzFN8RS-vj42mXJIS-27" value="" style="html=1;verticalLabelPosition=bottom;labelBackgroundColor=#ffffff;verticalAlign=top;shadow=0;dashed=0;strokeWidth=1;shape=mxgraph.ios7.misc.iphone;strokeColor=#c0c0c0;" vertex="1" parent="1">
          <mxGeometry x="663" y="510" width="17" height="30" as="geometry" />
        </mxCell>
        <mxCell id="HMTDzFN8RS-vj42mXJIS-104" value="" style="edgeStyle=orthogonalEdgeStyle;rounded=0;orthogonalLoop=1;jettySize=auto;html=1;" edge="1" parent="1" source="HMTDzFN8RS-vj42mXJIS-28" target="HMTDzFN8RS-vj42mXJIS-100">
          <mxGeometry relative="1" as="geometry" />
        </mxCell>
        <mxCell id="HMTDzFN8RS-vj42mXJIS-28" value="" style="verticalLabelPosition=bottom;html=1;verticalAlign=top;align=center;strokeColor=none;fillColor=#00BEF2;shape=mxgraph.azure.laptop;pointerEvents=1;" vertex="1" parent="1">
          <mxGeometry x="630" y="530" width="30" height="30" as="geometry" />
        </mxCell>
        <mxCell id="HMTDzFN8RS-vj42mXJIS-39" value="" style="group" vertex="1" connectable="0" parent="1">
          <mxGeometry x="20" y="320" width="180" height="110" as="geometry" />
        </mxCell>
        <mxCell id="HMTDzFN8RS-vj42mXJIS-1" value="iot Sensors" style="rounded=0;whiteSpace=wrap;html=1;" vertex="1" parent="HMTDzFN8RS-vj42mXJIS-39">
          <mxGeometry y="40" width="70" height="30" as="geometry" />
        </mxCell>
        <mxCell id="HMTDzFN8RS-vj42mXJIS-2" value="Camera" style="rounded=0;whiteSpace=wrap;html=1;" vertex="1" parent="HMTDzFN8RS-vj42mXJIS-39">
          <mxGeometry y="90" width="70" height="20" as="geometry" />
        </mxCell>
        <mxCell id="HMTDzFN8RS-vj42mXJIS-3" value="Mqtt server&lt;br&gt;rapberry pi" style="rounded=0;whiteSpace=wrap;html=1;" vertex="1" parent="HMTDzFN8RS-vj42mXJIS-39">
          <mxGeometry x="100" y="40" width="80" height="30" as="geometry" />
        </mxCell>
        <mxCell id="HMTDzFN8RS-vj42mXJIS-4" value="" style="endArrow=classic;html=1;rounded=0;entryX=0;entryY=0.5;entryDx=0;entryDy=0;" edge="1" parent="HMTDzFN8RS-vj42mXJIS-39" target="HMTDzFN8RS-vj42mXJIS-3">
          <mxGeometry width="50" height="50" relative="1" as="geometry">
            <mxPoint x="70" y="100" as="sourcePoint" />
            <mxPoint x="120" y="50" as="targetPoint" />
          </mxGeometry>
        </mxCell>
        <mxCell id="HMTDzFN8RS-vj42mXJIS-5" value="" style="endArrow=classic;html=1;rounded=0;exitX=1;exitY=0.5;exitDx=0;exitDy=0;" edge="1" parent="HMTDzFN8RS-vj42mXJIS-39" source="HMTDzFN8RS-vj42mXJIS-1">
          <mxGeometry width="50" height="50" relative="1" as="geometry">
            <mxPoint x="80" y="110" as="sourcePoint" />
            <mxPoint x="100" y="55" as="targetPoint" />
          </mxGeometry>
        </mxCell>
        <mxCell id="HMTDzFN8RS-vj42mXJIS-30" value="iot&amp;nbsp;actuators" style="rounded=0;whiteSpace=wrap;html=1;" vertex="1" parent="HMTDzFN8RS-vj42mXJIS-39">
          <mxGeometry width="70" height="30" as="geometry" />
        </mxCell>
        <mxCell id="HMTDzFN8RS-vj42mXJIS-31" value="" style="endArrow=classic;html=1;rounded=0;exitX=1;exitY=0.5;exitDx=0;exitDy=0;" edge="1" parent="HMTDzFN8RS-vj42mXJIS-39" source="HMTDzFN8RS-vj42mXJIS-30">
          <mxGeometry width="50" height="50" relative="1" as="geometry">
            <mxPoint x="80" y="65" as="sourcePoint" />
            <mxPoint x="100" y="50" as="targetPoint" />
          </mxGeometry>
        </mxCell>
        <mxCell id="HMTDzFN8RS-vj42mXJIS-123" value="" style="fillColor=#28A8E0;verticalLabelPosition=bottom;sketch=0;html=1;strokeColor=#ffffff;verticalAlign=top;align=center;points=[[0.145,0.145,0],[0.5,0,0],[0.855,0.145,0],[1,0.5,0],[0.855,0.855,0],[0.5,1,0],[0.145,0.855,0],[0,0.5,0]];pointerEvents=1;shape=mxgraph.cisco_safe.compositeIcon;bgIcon=ellipse;resIcon=mxgraph.cisco_safe.capability.load_balancer;" vertex="1" parent="HMTDzFN8RS-vj42mXJIS-39">
          <mxGeometry x="77.5" y="47" width="25" height="23" as="geometry" />
        </mxCell>
        <mxCell id="HMTDzFN8RS-vj42mXJIS-40" value="" style="group" vertex="1" connectable="0" parent="1">
          <mxGeometry x="20" y="40" width="180" height="110" as="geometry" />
        </mxCell>
        <mxCell id="HMTDzFN8RS-vj42mXJIS-41" value="iot Sensors" style="rounded=0;whiteSpace=wrap;html=1;" vertex="1" parent="HMTDzFN8RS-vj42mXJIS-40">
          <mxGeometry y="40" width="70" height="30" as="geometry" />
        </mxCell>
        <mxCell id="HMTDzFN8RS-vj42mXJIS-42" value="Camera" style="rounded=0;whiteSpace=wrap;html=1;" vertex="1" parent="HMTDzFN8RS-vj42mXJIS-40">
          <mxGeometry y="90" width="70" height="20" as="geometry" />
        </mxCell>
        <mxCell id="HMTDzFN8RS-vj42mXJIS-43" value="Mqtt server&lt;br&gt;rapberry pi" style="rounded=0;whiteSpace=wrap;html=1;" vertex="1" parent="HMTDzFN8RS-vj42mXJIS-40">
          <mxGeometry x="100" y="40" width="80" height="30" as="geometry" />
        </mxCell>
        <mxCell id="HMTDzFN8RS-vj42mXJIS-44" value="" style="endArrow=classic;html=1;rounded=0;entryX=0;entryY=0.5;entryDx=0;entryDy=0;" edge="1" parent="HMTDzFN8RS-vj42mXJIS-40" target="HMTDzFN8RS-vj42mXJIS-43">
          <mxGeometry width="50" height="50" relative="1" as="geometry">
            <mxPoint x="70" y="100" as="sourcePoint" />
            <mxPoint x="120" y="50" as="targetPoint" />
          </mxGeometry>
        </mxCell>
        <mxCell id="HMTDzFN8RS-vj42mXJIS-45" value="" style="endArrow=classic;html=1;rounded=0;exitX=1;exitY=0.5;exitDx=0;exitDy=0;" edge="1" parent="HMTDzFN8RS-vj42mXJIS-40" source="HMTDzFN8RS-vj42mXJIS-41">
          <mxGeometry width="50" height="50" relative="1" as="geometry">
            <mxPoint x="80" y="110" as="sourcePoint" />
            <mxPoint x="100" y="55" as="targetPoint" />
          </mxGeometry>
        </mxCell>
        <mxCell id="HMTDzFN8RS-vj42mXJIS-46" value="iot&amp;nbsp;actuators" style="rounded=0;whiteSpace=wrap;html=1;" vertex="1" parent="HMTDzFN8RS-vj42mXJIS-40">
          <mxGeometry width="70" height="30" as="geometry" />
        </mxCell>
        <mxCell id="HMTDzFN8RS-vj42mXJIS-47" value="" style="endArrow=classic;html=1;rounded=0;exitX=1;exitY=0.5;exitDx=0;exitDy=0;" edge="1" parent="HMTDzFN8RS-vj42mXJIS-40" source="HMTDzFN8RS-vj42mXJIS-46">
          <mxGeometry width="50" height="50" relative="1" as="geometry">
            <mxPoint x="80" y="65" as="sourcePoint" />
            <mxPoint x="100" y="50" as="targetPoint" />
          </mxGeometry>
        </mxCell>
        <mxCell id="HMTDzFN8RS-vj42mXJIS-110" value="" style="fillColor=#28A8E0;verticalLabelPosition=bottom;sketch=0;html=1;strokeColor=#ffffff;verticalAlign=top;align=center;points=[[0.145,0.145,0],[0.5,0,0],[0.855,0.145,0],[1,0.5,0],[0.855,0.855,0],[0.5,1,0],[0.145,0.855,0],[0,0.5,0]];pointerEvents=1;shape=mxgraph.cisco_safe.compositeIcon;bgIcon=ellipse;resIcon=mxgraph.cisco_safe.capability.load_balancer;" vertex="1" parent="HMTDzFN8RS-vj42mXJIS-40">
          <mxGeometry x="77.5" y="43.5" width="25" height="23" as="geometry" />
        </mxCell>
        <mxCell id="HMTDzFN8RS-vj42mXJIS-48" value="" style="group" vertex="1" connectable="0" parent="1">
          <mxGeometry x="20" y="185" width="180" height="110" as="geometry" />
        </mxCell>
        <mxCell id="HMTDzFN8RS-vj42mXJIS-49" value="iot Sensors" style="rounded=0;whiteSpace=wrap;html=1;" vertex="1" parent="HMTDzFN8RS-vj42mXJIS-48">
          <mxGeometry y="40" width="70" height="30" as="geometry" />
        </mxCell>
        <mxCell id="HMTDzFN8RS-vj42mXJIS-50" value="Camera" style="rounded=0;whiteSpace=wrap;html=1;" vertex="1" parent="HMTDzFN8RS-vj42mXJIS-48">
          <mxGeometry y="90" width="70" height="20" as="geometry" />
        </mxCell>
        <mxCell id="HMTDzFN8RS-vj42mXJIS-51" value="Mqtt server&lt;br&gt;rapberry pi" style="rounded=0;whiteSpace=wrap;html=1;" vertex="1" parent="HMTDzFN8RS-vj42mXJIS-48">
          <mxGeometry x="100" y="40" width="80" height="30" as="geometry" />
        </mxCell>
        <mxCell id="HMTDzFN8RS-vj42mXJIS-52" value="" style="endArrow=classic;html=1;rounded=0;entryX=0;entryY=0.5;entryDx=0;entryDy=0;" edge="1" parent="HMTDzFN8RS-vj42mXJIS-48" target="HMTDzFN8RS-vj42mXJIS-51">
          <mxGeometry width="50" height="50" relative="1" as="geometry">
            <mxPoint x="70" y="100" as="sourcePoint" />
            <mxPoint x="120" y="50" as="targetPoint" />
          </mxGeometry>
        </mxCell>
        <mxCell id="HMTDzFN8RS-vj42mXJIS-53" value="" style="endArrow=classic;html=1;rounded=0;exitX=1;exitY=0.5;exitDx=0;exitDy=0;" edge="1" parent="HMTDzFN8RS-vj42mXJIS-48" source="HMTDzFN8RS-vj42mXJIS-111">
          <mxGeometry width="50" height="50" relative="1" as="geometry">
            <mxPoint x="80" y="110" as="sourcePoint" />
            <mxPoint x="100" y="55" as="targetPoint" />
          </mxGeometry>
        </mxCell>
        <mxCell id="HMTDzFN8RS-vj42mXJIS-54" value="iot&amp;nbsp;actuators" style="rounded=0;whiteSpace=wrap;html=1;" vertex="1" parent="HMTDzFN8RS-vj42mXJIS-48">
          <mxGeometry width="70" height="30" as="geometry" />
        </mxCell>
        <mxCell id="HMTDzFN8RS-vj42mXJIS-55" value="" style="endArrow=classic;html=1;rounded=0;exitX=1;exitY=0.5;exitDx=0;exitDy=0;" edge="1" parent="HMTDzFN8RS-vj42mXJIS-48" source="HMTDzFN8RS-vj42mXJIS-54">
          <mxGeometry width="50" height="50" relative="1" as="geometry">
            <mxPoint x="80" y="65" as="sourcePoint" />
            <mxPoint x="100" y="50" as="targetPoint" />
          </mxGeometry>
        </mxCell>
        <mxCell id="HMTDzFN8RS-vj42mXJIS-111" value="" style="fillColor=#28A8E0;verticalLabelPosition=bottom;sketch=0;html=1;strokeColor=#ffffff;verticalAlign=top;align=center;points=[[0.145,0.145,0],[0.5,0,0],[0.855,0.145,0],[1,0.5,0],[0.855,0.855,0],[0.5,1,0],[0.145,0.855,0],[0,0.5,0]];pointerEvents=1;shape=mxgraph.cisco_safe.compositeIcon;bgIcon=ellipse;resIcon=mxgraph.cisco_safe.capability.load_balancer;" vertex="1" parent="HMTDzFN8RS-vj42mXJIS-48">
          <mxGeometry x="77.5" y="45.5" width="25" height="23" as="geometry" />
        </mxCell>
        <mxCell id="HMTDzFN8RS-vj42mXJIS-112" value="" style="endArrow=classic;html=1;rounded=0;exitX=1;exitY=0.5;exitDx=0;exitDy=0;" edge="1" parent="HMTDzFN8RS-vj42mXJIS-48" source="HMTDzFN8RS-vj42mXJIS-49" target="HMTDzFN8RS-vj42mXJIS-111">
          <mxGeometry width="50" height="50" relative="1" as="geometry">
            <mxPoint x="90" y="240" as="sourcePoint" />
            <mxPoint x="120" y="240" as="targetPoint" />
          </mxGeometry>
        </mxCell>
        <mxCell id="HMTDzFN8RS-vj42mXJIS-56" value="" style="endArrow=classic;html=1;rounded=0;exitX=1;exitY=0.5;exitDx=0;exitDy=0;entryX=0.5;entryY=1;entryDx=0;entryDy=0;entryPerimeter=0;" edge="1" parent="1" source="HMTDzFN8RS-vj42mXJIS-43" target="HMTDzFN8RS-vj42mXJIS-26">
          <mxGeometry width="50" height="50" relative="1" as="geometry">
            <mxPoint x="390" y="290" as="sourcePoint" />
            <mxPoint x="440" y="240" as="targetPoint" />
          </mxGeometry>
        </mxCell>
        <mxCell id="HMTDzFN8RS-vj42mXJIS-57" value="Data Stream" style="text;html=1;align=center;verticalAlign=middle;whiteSpace=wrap;rounded=0;" vertex="1" parent="1">
          <mxGeometry x="275" y="270" width="35" height="30" as="geometry" />
        </mxCell>
        <mxCell id="HMTDzFN8RS-vj42mXJIS-58" value="" style="endArrow=classic;html=1;rounded=0;exitX=1;exitY=0.5;exitDx=0;exitDy=0;" edge="1" parent="1">
          <mxGeometry width="50" height="50" relative="1" as="geometry">
            <mxPoint x="200" y="235" as="sourcePoint" />
            <mxPoint x="260" y="240" as="targetPoint" />
          </mxGeometry>
        </mxCell>
        <mxCell id="HMTDzFN8RS-vj42mXJIS-59" value="" style="endArrow=classic;html=1;rounded=0;exitX=1;exitY=0.5;exitDx=0;exitDy=0;" edge="1" parent="1" source="HMTDzFN8RS-vj42mXJIS-3">
          <mxGeometry width="50" height="50" relative="1" as="geometry">
            <mxPoint x="210" y="375" as="sourcePoint" />
            <mxPoint x="260" y="240" as="targetPoint" />
          </mxGeometry>
        </mxCell>
        <mxCell id="HMTDzFN8RS-vj42mXJIS-60" value="" style="endArrow=classic;html=1;rounded=0;exitX=1;exitY=0.5;exitDx=0;exitDy=0;" edge="1" parent="1" target="HMTDzFN8RS-vj42mXJIS-65">
          <mxGeometry width="50" height="50" relative="1" as="geometry">
            <mxPoint x="320" y="250.28" as="sourcePoint" />
            <mxPoint x="386" y="249.99999999999991" as="targetPoint" />
          </mxGeometry>
        </mxCell>
        <mxCell id="HMTDzFN8RS-vj42mXJIS-63" value="" style="shape=datastore;whiteSpace=wrap;html=1;" vertex="1" parent="1">
          <mxGeometry x="360" y="267" width="30" height="32.5" as="geometry" />
        </mxCell>
        <mxCell id="HMTDzFN8RS-vj42mXJIS-65" value="" style="sketch=0;outlineConnect=0;fontColor=#232F3E;gradientColor=none;fillColor=#7AA116;strokeColor=none;dashed=0;verticalLabelPosition=bottom;verticalAlign=top;align=center;html=1;fontSize=12;fontStyle=0;aspect=fixed;pointerEvents=1;shape=mxgraph.aws4.s3_on_outposts;" vertex="1" parent="1">
          <mxGeometry x="360" y="222" width="40" height="40" as="geometry" />
        </mxCell>
        <mxCell id="HMTDzFN8RS-vj42mXJIS-66" value="" style="endArrow=classic;html=1;rounded=0;exitX=0.686;exitY=-0.017;exitDx=0;exitDy=0;exitPerimeter=0;entryX=0;entryY=0.5;entryDx=0;entryDy=0;" edge="1" parent="1" source="HMTDzFN8RS-vj42mXJIS-26" target="HMTDzFN8RS-vj42mXJIS-63">
          <mxGeometry width="50" height="50" relative="1" as="geometry">
            <mxPoint x="330" y="260.28" as="sourcePoint" />
            <mxPoint x="370" y="247" as="targetPoint" />
          </mxGeometry>
        </mxCell>
        <mxCell id="HMTDzFN8RS-vj42mXJIS-67" value="&lt;font style=&quot;font-size: 9px;&quot;&gt;Object Storage&lt;/font&gt;" style="text;html=1;align=center;verticalAlign=middle;whiteSpace=wrap;rounded=0;" vertex="1" parent="1">
          <mxGeometry x="346" y="191" width="60" height="30" as="geometry" />
        </mxCell>
        <mxCell id="HMTDzFN8RS-vj42mXJIS-68" value="&lt;font style=&quot;font-size: 9px;&quot;&gt;database for sensor&lt;/font&gt;" style="text;html=1;align=center;verticalAlign=middle;whiteSpace=wrap;rounded=0;" vertex="1" parent="1">
          <mxGeometry x="346" y="295" width="60" height="30" as="geometry" />
        </mxCell>
        <mxCell id="HMTDzFN8RS-vj42mXJIS-69" value="" style="endArrow=classic;html=1;rounded=0;entryX=0;entryY=0.5;entryDx=0;entryDy=0;exitX=0.359;exitY=-0.005;exitDx=0;exitDy=0;exitPerimeter=0;" edge="1" parent="1" source="HMTDzFN8RS-vj42mXJIS-26" target="HMTDzFN8RS-vj42mXJIS-21">
          <mxGeometry width="50" height="50" relative="1" as="geometry">
            <mxPoint x="310" y="200" as="sourcePoint" />
            <mxPoint x="370" y="293" as="targetPoint" />
          </mxGeometry>
        </mxCell>
        <mxCell id="HMTDzFN8RS-vj42mXJIS-70" value="" style="endArrow=classic;html=1;rounded=0;entryX=0;entryY=0.25;entryDx=0;entryDy=0;exitX=0.359;exitY=-0.005;exitDx=0;exitDy=0;exitPerimeter=0;" edge="1" parent="1" target="HMTDzFN8RS-vj42mXJIS-24">
          <mxGeometry width="50" height="50" relative="1" as="geometry">
            <mxPoint x="400" y="245" as="sourcePoint" />
            <mxPoint x="470" y="150" as="targetPoint" />
          </mxGeometry>
        </mxCell>
        <mxCell id="HMTDzFN8RS-vj42mXJIS-71" value="" style="endArrow=classic;html=1;rounded=0;entryX=0;entryY=0.25;entryDx=0;entryDy=0;exitX=1;exitY=0.7;exitDx=0;exitDy=0;" edge="1" parent="1" source="HMTDzFN8RS-vj42mXJIS-63" target="HMTDzFN8RS-vj42mXJIS-24">
          <mxGeometry width="50" height="50" relative="1" as="geometry">
            <mxPoint x="410" y="255" as="sourcePoint" />
            <mxPoint x="490" y="285" as="targetPoint" />
          </mxGeometry>
        </mxCell>
        <mxCell id="HMTDzFN8RS-vj42mXJIS-72" value="" style="shape=datastore;whiteSpace=wrap;html=1;" vertex="1" parent="1">
          <mxGeometry x="360" y="340" width="30" height="32.5" as="geometry" />
        </mxCell>
        <mxCell id="HMTDzFN8RS-vj42mXJIS-73" value="&lt;font style=&quot;font-size: 9px;&quot;&gt;Session database&lt;/font&gt;" style="text;html=1;align=center;verticalAlign=middle;whiteSpace=wrap;rounded=0;" vertex="1" parent="1">
          <mxGeometry x="345" y="370" width="60" height="30" as="geometry" />
        </mxCell>
        <mxCell id="HMTDzFN8RS-vj42mXJIS-74" value="" style="endArrow=classic;html=1;rounded=0;exitX=0.808;exitY=-0.017;exitDx=0;exitDy=0;exitPerimeter=0;entryX=0;entryY=0.5;entryDx=0;entryDy=0;" edge="1" parent="1" source="HMTDzFN8RS-vj42mXJIS-26" target="HMTDzFN8RS-vj42mXJIS-72">
          <mxGeometry width="50" height="50" relative="1" as="geometry">
            <mxPoint x="390" y="330" as="sourcePoint" />
            <mxPoint x="440" y="280" as="targetPoint" />
          </mxGeometry>
        </mxCell>
        <mxCell id="HMTDzFN8RS-vj42mXJIS-75" value="&lt;font style=&quot;font-size: 10px;&quot;&gt;session management&lt;/font&gt;" style="rounded=0;whiteSpace=wrap;html=1;" vertex="1" parent="1">
          <mxGeometry x="510" y="340" width="110" height="30" as="geometry" />
        </mxCell>
        <mxCell id="HMTDzFN8RS-vj42mXJIS-76" value="" style="endArrow=classic;html=1;rounded=0;entryX=0;entryY=0.5;entryDx=0;entryDy=0;exitX=1;exitY=0.7;exitDx=0;exitDy=0;" edge="1" parent="1" target="HMTDzFN8RS-vj42mXJIS-75">
          <mxGeometry width="50" height="50" relative="1" as="geometry">
            <mxPoint x="390" y="355" as="sourcePoint" />
            <mxPoint x="480" y="340" as="targetPoint" />
          </mxGeometry>
        </mxCell>
        <mxCell id="HMTDzFN8RS-vj42mXJIS-78" value="" style="sketch=0;points=[[0,0,0],[0.25,0,0],[0.5,0,0],[0.75,0,0],[1,0,0],[0,1,0],[0.25,1,0],[0.5,1,0],[0.75,1,0],[1,1,0],[0,0.25,0],[0,0.5,0],[0,0.75,0],[1,0.25,0],[1,0.5,0],[1,0.75,0]];outlineConnect=0;fontColor=#232F3E;fillColor=#ED7100;strokeColor=#ffffff;dashed=0;verticalLabelPosition=bottom;verticalAlign=top;align=center;html=1;fontSize=12;fontStyle=0;aspect=fixed;shape=mxgraph.aws4.resourceIcon;resIcon=mxgraph.aws4.elastic_load_balancing;" vertex="1" parent="1">
          <mxGeometry x="600" y="125" width="60" height="60" as="geometry" />
        </mxCell>
        <mxCell id="HMTDzFN8RS-vj42mXJIS-79" value="" style="endArrow=classic;html=1;rounded=0;" edge="1" parent="1" target="HMTDzFN8RS-vj42mXJIS-78">
          <mxGeometry width="50" height="50" relative="1" as="geometry">
            <mxPoint x="480" y="150" as="sourcePoint" />
            <mxPoint x="530" y="100" as="targetPoint" />
          </mxGeometry>
        </mxCell>
        <mxCell id="HMTDzFN8RS-vj42mXJIS-80" value="&lt;font style=&quot;font-size: 10px;&quot;&gt;Load balancer&lt;/font&gt;" style="text;html=1;align=center;verticalAlign=middle;whiteSpace=wrap;rounded=0;" vertex="1" parent="1">
          <mxGeometry x="600" y="185" width="60" height="30" as="geometry" />
        </mxCell>
        <mxCell id="HMTDzFN8RS-vj42mXJIS-81" value="" style="endArrow=classic;html=1;rounded=0;" edge="1" parent="1">
          <mxGeometry width="50" height="50" relative="1" as="geometry">
            <mxPoint x="540" y="266" as="sourcePoint" />
            <mxPoint x="600" y="155" as="targetPoint" />
          </mxGeometry>
        </mxCell>
        <mxCell id="HMTDzFN8RS-vj42mXJIS-82" value="" style="endArrow=classic;html=1;rounded=0;entryX=1;entryY=0.5;entryDx=0;entryDy=0;entryPerimeter=0;" edge="1" parent="1" target="HMTDzFN8RS-vj42mXJIS-78">
          <mxGeometry width="50" height="50" relative="1" as="geometry">
            <mxPoint x="740" y="261.5" as="sourcePoint" />
            <mxPoint x="800" y="150.5" as="targetPoint" />
          </mxGeometry>
        </mxCell>
        <mxCell id="HMTDzFN8RS-vj42mXJIS-84" value="" style="endArrow=classic;html=1;rounded=0;entryX=1;entryY=1;entryDx=0;entryDy=0;entryPerimeter=0;exitX=0.199;exitY=-0.007;exitDx=0;exitDy=0;exitPerimeter=0;" edge="1" parent="1">
          <mxGeometry width="50" height="50" relative="1" as="geometry">
            <mxPoint x="701" y="331" as="sourcePoint" />
            <mxPoint x="651" y="186.0000000000001" as="targetPoint" />
            <Array as="points">
              <mxPoint x="661" y="241" />
            </Array>
          </mxGeometry>
        </mxCell>
        <mxCell id="HMTDzFN8RS-vj42mXJIS-85" value="" style="endArrow=classic;html=1;rounded=0;exitX=0.905;exitY=-0.081;exitDx=0;exitDy=0;exitPerimeter=0;" edge="1" parent="1">
          <mxGeometry width="50" height="50" relative="1" as="geometry">
            <mxPoint x="606.55" y="337.56999999999994" as="sourcePoint" />
            <mxPoint x="607" y="190" as="targetPoint" />
          </mxGeometry>
        </mxCell>
        <mxCell id="HMTDzFN8RS-vj42mXJIS-86" value="" style="endArrow=classic;html=1;rounded=0;" edge="1" parent="1" target="HMTDzFN8RS-vj42mXJIS-101">
          <mxGeometry width="50" height="50" relative="1" as="geometry">
            <mxPoint x="614.64" y="429" as="sourcePoint" />
            <mxPoint x="614.64" y="506.5" as="targetPoint" />
          </mxGeometry>
        </mxCell>
        <mxCell id="HMTDzFN8RS-vj42mXJIS-87" value="" style="shape=datastore;whiteSpace=wrap;html=1;" vertex="1" parent="1">
          <mxGeometry x="480" y="307.5" width="30" height="32.5" as="geometry" />
        </mxCell>
        <mxCell id="HMTDzFN8RS-vj42mXJIS-88" value="" style="shape=datastore;whiteSpace=wrap;html=1;" vertex="1" parent="1">
          <mxGeometry x="778" y="302.5" width="20" height="24.5" as="geometry" />
        </mxCell>
        <mxCell id="HMTDzFN8RS-vj42mXJIS-89" value="" style="endArrow=classic;html=1;rounded=0;exitX=0;exitY=0.5;exitDx=0;exitDy=0;entryX=0.678;entryY=0.992;entryDx=0;entryDy=0;entryPerimeter=0;" edge="1" parent="1" source="HMTDzFN8RS-vj42mXJIS-88" target="HMTDzFN8RS-vj42mXJIS-22">
          <mxGeometry width="50" height="50" relative="1" as="geometry">
            <mxPoint x="625" y="313.79499999999996" as="sourcePoint" />
            <mxPoint x="640" y="299.49799999999993" as="targetPoint" />
          </mxGeometry>
        </mxCell>
        <mxCell id="HMTDzFN8RS-vj42mXJIS-90" value="" style="endArrow=classic;html=1;rounded=0;exitX=0.676;exitY=0.266;exitDx=0;exitDy=0;exitPerimeter=0;entryX=0.294;entryY=1.056;entryDx=0;entryDy=0;entryPerimeter=0;" edge="1" parent="1">
          <mxGeometry width="50" height="50" relative="1" as="geometry">
            <mxPoint x="494.28" y="313.145" as="sourcePoint" />
            <mxPoint x="509.28" y="298.84799999999996" as="targetPoint" />
          </mxGeometry>
        </mxCell>
        <mxCell id="HMTDzFN8RS-vj42mXJIS-91" value="&lt;font style=&quot;font-size: 8px;&quot;&gt;CDN&lt;/font&gt;" style="ellipse;shape=cloud;whiteSpace=wrap;html=1;" vertex="1" parent="1">
          <mxGeometry x="600" y="400" width="30" height="30" as="geometry" />
        </mxCell>
        <mxCell id="HMTDzFN8RS-vj42mXJIS-92" value="&lt;font style=&quot;font-size: 8px;&quot;&gt;CDN&lt;/font&gt;" style="ellipse;shape=cloud;whiteSpace=wrap;html=1;" vertex="1" parent="1">
          <mxGeometry x="633" y="399" width="30" height="30" as="geometry" />
        </mxCell>
        <mxCell id="HMTDzFN8RS-vj42mXJIS-93" value="&lt;font style=&quot;font-size: 8px;&quot;&gt;CDN&lt;/font&gt;" style="ellipse;shape=cloud;whiteSpace=wrap;html=1;" vertex="1" parent="1">
          <mxGeometry x="667" y="400" width="30" height="30" as="geometry" />
        </mxCell>
        <mxCell id="HMTDzFN8RS-vj42mXJIS-95" value="" style="endArrow=classic;html=1;rounded=0;exitX=1;exitY=1;exitDx=0;exitDy=0;" edge="1" parent="1" source="HMTDzFN8RS-vj42mXJIS-24">
          <mxGeometry width="50" height="50" relative="1" as="geometry">
            <mxPoint x="660" y="340" as="sourcePoint" />
            <mxPoint x="610" y="410" as="targetPoint" />
            <Array as="points">
              <mxPoint x="640" y="350" />
            </Array>
          </mxGeometry>
        </mxCell>
        <mxCell id="HMTDzFN8RS-vj42mXJIS-96" value="" style="endArrow=classic;html=1;rounded=0;exitX=1;exitY=0.5;exitDx=0;exitDy=0;" edge="1" parent="1" source="HMTDzFN8RS-vj42mXJIS-24">
          <mxGeometry width="50" height="50" relative="1" as="geometry">
            <mxPoint x="645" y="296.5" as="sourcePoint" />
            <mxPoint x="645" y="403.5" as="targetPoint" />
            <Array as="points">
              <mxPoint x="640" y="350" />
            </Array>
          </mxGeometry>
        </mxCell>
        <mxCell id="HMTDzFN8RS-vj42mXJIS-97" value="" style="endArrow=classic;html=1;rounded=0;exitX=1;exitY=0.25;exitDx=0;exitDy=0;entryX=0.25;entryY=0.25;entryDx=0;entryDy=0;entryPerimeter=0;" edge="1" parent="1" source="HMTDzFN8RS-vj42mXJIS-24" target="HMTDzFN8RS-vj42mXJIS-93">
          <mxGeometry width="50" height="50" relative="1" as="geometry">
            <mxPoint x="632" y="293" as="sourcePoint" />
            <mxPoint x="655" y="413.5" as="targetPoint" />
            <Array as="points">
              <mxPoint x="640" y="350" />
            </Array>
          </mxGeometry>
        </mxCell>
        <mxCell id="HMTDzFN8RS-vj42mXJIS-99" value="user" style="whiteSpace=wrap;html=1;shape=mxgraph.basic.cloud_rect" vertex="1" parent="1">
          <mxGeometry x="673" y="470" width="40" height="30" as="geometry" />
        </mxCell>
        <mxCell id="HMTDzFN8RS-vj42mXJIS-100" value="user" style="whiteSpace=wrap;html=1;shape=mxgraph.basic.cloud_rect" vertex="1" parent="1">
          <mxGeometry x="627" y="470" width="40" height="30" as="geometry" />
        </mxCell>
        <mxCell id="HMTDzFN8RS-vj42mXJIS-101" value="user" style="whiteSpace=wrap;html=1;shape=mxgraph.basic.cloud_rect" vertex="1" parent="1">
          <mxGeometry x="580" y="470" width="40" height="30" as="geometry" />
        </mxCell>
        <mxCell id="HMTDzFN8RS-vj42mXJIS-102" value="" style="endArrow=classic;html=1;rounded=0;exitX=0.55;exitY=0.95;exitDx=0;exitDy=0;exitPerimeter=0;entryX=0.457;entryY=0.038;entryDx=0;entryDy=0;entryPerimeter=0;" edge="1" parent="1" source="HMTDzFN8RS-vj42mXJIS-92" target="HMTDzFN8RS-vj42mXJIS-100">
          <mxGeometry width="50" height="50" relative="1" as="geometry">
            <mxPoint x="624.64" y="439" as="sourcePoint" />
            <mxPoint x="614" y="480" as="targetPoint" />
          </mxGeometry>
        </mxCell>
        <mxCell id="HMTDzFN8RS-vj42mXJIS-103" value="" style="endArrow=classic;html=1;rounded=0;exitX=0.55;exitY=0.95;exitDx=0;exitDy=0;exitPerimeter=0;entryX=0.325;entryY=0.086;entryDx=0;entryDy=0;entryPerimeter=0;" edge="1" parent="1" source="HMTDzFN8RS-vj42mXJIS-93" target="HMTDzFN8RS-vj42mXJIS-99">
          <mxGeometry width="50" height="50" relative="1" as="geometry">
            <mxPoint x="634.64" y="449" as="sourcePoint" />
            <mxPoint x="624" y="490" as="targetPoint" />
          </mxGeometry>
        </mxCell>
        <mxCell id="HMTDzFN8RS-vj42mXJIS-105" style="edgeStyle=orthogonalEdgeStyle;rounded=0;orthogonalLoop=1;jettySize=auto;html=1;entryX=0.736;entryY=1.086;entryDx=0;entryDy=0;entryPerimeter=0;" edge="1" parent="1" source="HMTDzFN8RS-vj42mXJIS-27" target="HMTDzFN8RS-vj42mXJIS-99">
          <mxGeometry relative="1" as="geometry">
            <Array as="points">
              <mxPoint x="702" y="520" />
            </Array>
          </mxGeometry>
        </mxCell>
        <mxCell id="HMTDzFN8RS-vj42mXJIS-106" value="" style="html=1;verticalLabelPosition=bottom;labelBackgroundColor=#ffffff;verticalAlign=top;shadow=0;dashed=0;strokeWidth=1;shape=mxgraph.ios7.misc.ipad7inch;strokeColor=#c0c0c0;" vertex="1" parent="1">
          <mxGeometry x="534" y="520" width="56" height="29" as="geometry" />
        </mxCell>
        <mxCell id="HMTDzFN8RS-vj42mXJIS-107" style="edgeStyle=orthogonalEdgeStyle;rounded=0;orthogonalLoop=1;jettySize=auto;html=1;entryX=0.5;entryY=1;entryDx=0;entryDy=0;entryPerimeter=0;" edge="1" parent="1" source="HMTDzFN8RS-vj42mXJIS-106" target="HMTDzFN8RS-vj42mXJIS-101">
          <mxGeometry relative="1" as="geometry">
            <Array as="points">
              <mxPoint x="562" y="510" />
              <mxPoint x="600" y="510" />
            </Array>
          </mxGeometry>
        </mxCell>
        <mxCell id="HMTDzFN8RS-vj42mXJIS-108" value="" style="endArrow=classic;startArrow=classic;html=1;rounded=0;" edge="1" parent="1">
          <mxGeometry width="50" height="50" relative="1" as="geometry">
            <mxPoint x="640" y="350" as="sourcePoint" />
            <mxPoint x="670" y="350" as="targetPoint" />
          </mxGeometry>
        </mxCell>
      </root>
    </mxGraphModel>
  </diagram>
</mxfile>
